<?xml version="1.0" encoding="utf-8"?>
<!-- Generator: Adobe Illustrator 27.0.0, SVG Export Plug-In . SVG Version: 6.00 Build 0)  -->
<svg version="1.1" id="Capa_1" xmlns="http://www.w3.org/2000/svg" xmlns:xlink="http://www.w3.org/1999/xlink" x="0px" y="0px"
	 viewBox="0 0 512 512" style="enable-background:new 0 0 512 512;" xml:space="preserve">
<style type="text/css">
	.st0{fill:#FFFFFF;}
	.st1{fill:#295135;}
</style>
<path class="st0" d="M461.9,512H50.1C22.4,512,0,489.6,0,461.9V50.1C0,22.4,22.4,0,50.1,0h411.8C489.6,0,512,22.4,512,50.1v411.8
	C512,489.6,489.6,512,461.9,512z"/>
<path class="st1" d="M102.2,270.5c0,0-38.3-25.6-46.2-36c14.9-18.3,54.8-61.6,71.9-77.6s24-18.3,29.7-18.3s10.3,0,20.5,11.5
	c7.7,10.3,18.5,17.9,30.8,21.6c16,5.7,60.4,5.7,78.7,6.8s76.5,8,111.9,26.3s56.5,40.9,56.5,70.7c0,29.7-22.2,59.4-90.7,81.1
	c-68.6,21.8-129,18.4-183.8,11.4c-54.8-6.9-102.5-28.5-123.2-50.2c-2.3-3.4-1.2-3.4,1.1-5.7c2.3-2.3,35.5-27.4,40.5-30.2
	c0,0,2.3-3.4,8,0s87.8,45.6,145.3,54.8c57.4,9.1,135.3,12.6,177.1-22.2s21.4-64.5-2.6-79.3s-65-32-133.5-26.3
	c-68.4,5.6-151,40.9-186.4,60.5C105.6,270.5,103.9,272.3,102.2,270.5z"/>
</svg>
